<?xml version="1.0" encoding="UTF-8" standalone="no"?>
<svg
   xmlns:dc="http://purl.org/dc/elements/1.1/"
   xmlns:cc="http://creativecommons.org/ns#"
   xmlns:rdf="http://www.w3.org/1999/02/22-rdf-syntax-ns#"
   xmlns:svg="http://www.w3.org/2000/svg"
   xmlns="http://www.w3.org/2000/svg"
   xmlns:xlink="http://www.w3.org/1999/xlink"
   xmlns:sodipodi="http://sodipodi.sourceforge.net/DTD/sodipodi-0.dtd"
   xmlns:inkscape="http://www.inkscape.org/namespaces/inkscape"
   version="1.2"
   width="1255"
   height="400"
   preserveAspectRatio="xMidYMid"
   clip-path="url(#presentation_clip_path)"
   xml:space="preserve"
   id="svg2"
   inkscape:version="0.48.4 r9939"
   sodipodi:docname="Stack_trace_generation.svg"
   style="font-size:9px;font-family:Sans"><title
     id="title8791">Stack trace generation</title><defs
     id="defs260"><marker
       inkscape:stockid="Arrow2Lend"
       orient="auto"
       refY="0"
       refX="0"
       id="Arrow2Lend"
       style="overflow:visible"><path
         id="path4997"
         style="fill-rule:evenodd;stroke-width:0.625;stroke-linejoin:round"
         d="M 8.7185878,4.0337352 -2.2072895,0.01601326 8.7185884,-4.0017078 c -1.7454984,2.3720609 -1.7354408,5.6174519 -6e-7,8.035443 z"
         transform="matrix(-1.1,0,0,-1.1,-1.1,0)"
         inkscape:connector-curvature="0" /></marker><path
       inkscape:connector-curvature="0"
       id="pathQuestionBlock"
       d="M 0,32.5 55.5,0 111,32.5 55.5,65 z"
       style="fill:#fdf7fb;stroke:#000000;stroke-width:1px" /></defs><metadata
     id="metadata789"><rdf:RDF><cc:Work
         rdf:about=""><dc:format>image/svg+xml</dc:format><dc:type
           rdf:resource="http://purl.org/dc/dcmitype/StillImage" /><dc:title>Stack trace generation</dc:title><cc:license
           rdf:resource="http://www.gnu.org/licenses/gpl.txt" /><dc:subject><rdf:Bag /></dc:subject><dc:language>en-US</dc:language><dc:creator><cc:Agent><dc:title>Raffaello D. Di Napoli</dc:title></cc:Agent></dc:creator></cc:Work></rdf:RDF></metadata><sodipodi:namedview
     pagecolor="#ffffff"
     bordercolor="#666666"
     borderopacity="1"
     objecttolerance="10"
     gridtolerance="10"
     guidetolerance="10"
     inkscape:pageopacity="0"
     inkscape:pageshadow="2"
     inkscape:window-width="1600"
     inkscape:window-height="848"
     id="namedview787"
     showgrid="false"
     inkscape:zoom="1"
     inkscape:cx="671.5"
     inkscape:cy="80"
     inkscape:window-x="0"
     inkscape:window-y="30"
     inkscape:window-maximized="1"
     inkscape:current-layer="svg2"
     fit-margin-top="0"
     fit-margin-left="0"
     fit-margin-right="0"
     fit-margin-bottom="0" /><g
     id="gTitle"><rect
       id="rect3296"
       x="0"
       width="1255"
       height="30"
       y="0"
       style="fill:#4c4c4c;stroke:none" /><text
       style="font-size:18px;fill:#ffffff"
       y="22"
       x="8"
       id="text779">How a stack trace is generated and discarded during exception-driven stack unwinding</text>
</g><g
     id="gBackgroundAreas"><rect
       id="rect4955"
       x="268"
       width="270"
       height="185"
       y="109"
       style="fill:#fbe000;fill-opacity:0.2"
       ry="15"
       rx="15" /><rect
       id="rect4958"
       style="fill:#aecf00;fill-opacity:0.2"
       width="578"
       height="185"
       x="545"
       y="109"
       ry="15"
       rx="15" /></g><g
     style="font-size:9px;text-align:end;text-anchor:end;opacity:0.5"
     id="gBackgroundAreasText"><text
       id="text8510"
       y="262"
       x="529"
       xml:space="preserve"><tspan
         y="262"
         x="529"
         id="tspan8512"
         sodipodi:role="line">Platform-</tspan><tspan
         id="tspan8514"
         y="273.25"
         x="529"
         sodipodi:role="line">controlled</tspan><tspan
         id="tspan8516"
         y="284.5"
         x="529"
         sodipodi:role="line">execution</tspan></text>
<text
       id="text8534"
       y="284"
       x="1111"
       xml:space="preserve"><tspan
         y="284"
         x="1111"
         id="tspan8536"
         sodipodi:role="line">Inside catch block</tspan></text>
</g><g
     id="gBlocks"
     style="fill:#fdf7fb;fill-opacity:1;stroke:#000000;stroke-width:1px"><path
       id="path334"
       d="m 1161,179 c -8,0 -16,-11 -16,-22 0,-11 8,-22 16,-22 l 67.221,0 c 8,0 16,11 16,22 0,11 -8,22 -16,22 L 1161,179 z"
       inkscape:connector-curvature="0" /><path
       inkscape:connector-curvature="0"
       id="path682"
       d="m 24.789367,178.80054 c -8.01561,0 -16.031221,-10.90995 -16.031221,-21.81989 0,-10.90995 8.015611,-21.79499 16.031221,-21.79499 l 67.820553,0 c 8.01561,0 16.03123,10.88504 16.03123,21.79499 0,10.90994 -8.01562,21.81989 -16.03123,21.81989 l -67.820553,0 z" /><use
       id="use8817"
       xlink:href="#pathQuestionBlock"
       y="124"
       x="141"
       width="1255"
       height="400" /><use
       x="410"
       y="124"
       xlink:href="#pathQuestionBlock"
       id="use8826"
       width="1255"
       height="400" /><use
       id="use8828"
       xlink:href="#pathQuestionBlock"
       y="124"
       x="561"
       width="1255"
       height="400" /><use
       x="276"
       y="198"
       xlink:href="#pathQuestionBlock"
       id="use8830"
       width="1255"
       height="400" /><use
       x="705"
       y="124"
       xlink:href="#pathQuestionBlock"
       id="use8832"
       width="1255"
       height="400" /><use
       id="use8834"
       xlink:href="#pathQuestionBlock"
       y="124"
       x="849"
       width="1255"
       height="400" /><use
       x="849"
       y="213"
       xlink:href="#pathQuestionBlock"
       id="use8836"
       width="1255"
       height="400" /><rect
       y="56.5"
       height="35"
       width="111"
       x="140.5"
       id="rect8848" /><rect
       id="rect8850"
       x="693.5"
       width="134"
       height="35"
       y="56.5" /><rect
       id="rect8852"
       x="285.5"
       width="91"
       height="35"
       y="139.5" /><rect
       id="rect8854"
       x="264.5"
       width="130"
       height="43"
       y="310.5" /><rect
       y="135.5"
       height="43"
       width="121"
       x="994.5"
       id="rect8856" /></g><g
     style="font-size:9px;text-align:center;text-anchor:middle"
     id="gBlocksText"><text
       id="text4960"
       y="160"
       x="58"
       xml:space="preserve"><tspan
         y="159"
         x="58"
         id="tspan4962"
         sodipodi:role="line">Exception thrown</tspan></text>
<text
       xml:space="preserve"
       x="196"
       y="72"
       id="text8570"><tspan
         sodipodi:role="line"
         id="tspan8572"
         x="196"
         y="72">Discard any current</tspan><tspan
         id="tspan8574"
         sodipodi:role="line"
         x="196"
         y="83.25">stack trace</tspan></text>
<text
       xml:space="preserve"
       x="196"
       y="154"
       id="text8576"><tspan
         id="tspan8580"
         sodipodi:role="line"
         x="196"
         y="154">ABC_THROW of</tspan><tspan
         id="tspan8584"
         sodipodi:role="line"
         x="196"
         y="165.25">abc::exception?</tspan></text>
<text
       id="text8586"
       y="155"
       x="331"
       xml:space="preserve"><tspan
         y="155"
         x="331"
         id="tspan8588"
         sodipodi:role="line">Unwind to next</tspan><tspan
         y="166.25"
         x="331"
         sodipodi:role="line"
         id="tspan8590">stack frame</tspan></text>
<text
       xml:space="preserve"
       x="331"
       y="324"
       id="text8592"><tspan
         sodipodi:role="line"
         id="tspan8594"
         x="331"
         y="324">_scope_trace destructor</tspan><tspan
         id="tspan8596"
         sodipodi:role="line"
         x="331"
         y="335.25">adds stack frame to</tspan><tspan
         id="tspan8598"
         sodipodi:role="line"
         x="331"
         y="346.5">current trace</tspan></text>
<text
       id="text8600"
       y="71"
       x="760"
       xml:space="preserve"><tspan
         y="71"
         x="760"
         id="tspan8602"
         sodipodi:role="line">Will discard stack trace</tspan><tspan
         y="82.25"
         x="760"
         sodipodi:role="line"
         id="tspan8604">(in exception’s destructor)</tspan></text>
<text
       id="text8606"
       y="223"
       x="331"
       xml:space="preserve"><tspan
         y="223"
         x="331"
         sodipodi:role="line"
         id="tspan8608">Frame has</tspan><tspan
         y="234.25"
         x="331"
         sodipodi:role="line"
         id="tspan8610">abc::_scope_trace</tspan><tspan
         id="tspan8612"
         y="245.5"
         x="331"
         sodipodi:role="line">instance?</tspan></text>
<text
       xml:space="preserve"
       x="465"
       y="150"
       id="text8614"><tspan
         id="tspan8616"
         sodipodi:role="line"
         x="465"
         y="150">Matching</tspan><tspan
         id="tspan8618"
         sodipodi:role="line"
         x="465"
         y="161.25">catch block</tspan><tspan
         sodipodi:role="line"
         x="465"
         y="172.5"
         id="tspan8620">found?</tspan></text>
<text
       id="text8622"
       y="148"
       x="617"
       xml:space="preserve"><tspan
         y="148"
         x="617"
         sodipodi:role="line"
         id="tspan8626">Catch block</tspan><tspan
         id="tspan8628"
         y="159.25"
         x="617"
         sodipodi:role="line">executes throw;</tspan><tspan
         id="tspan8632"
         y="170.5"
         x="617"
         sodipodi:role="line">statement?</tspan></text>
<text
       xml:space="preserve"
       x="760"
       y="143"
       id="text8634"><tspan
         id="tspan8636"
         sodipodi:role="line"
         x="760"
         y="143">Caught</tspan><tspan
         sodipodi:role="line"
         x="760"
         y="154.25"
         id="tspan8640">exception is</tspan><tspan
         id="tspan8649"
         sodipodi:role="line"
         x="760"
         y="165.5">abc::exception?</tspan></text>
<text
       id="text8651"
       y="152"
       x="904"
       xml:space="preserve"><tspan
         y="152"
         x="904"
         sodipodi:role="line"
         id="tspan8657">Final</tspan><tspan
         id="tspan8666"
         y="163.25"
         x="904"
         sodipodi:role="line">catch block?</tspan></text>
<text
       xml:space="preserve"
       x="905"
       y="239"
       id="text8668"><tspan
         sodipodi:role="line"
         x="905"
         y="239"
         id="tspan8674">Catch block</tspan><tspan
         id="tspan8681"
         sodipodi:role="line"
         x="905"
         y="250.25">throws a different</tspan><tspan
         id="tspan8683"
         sodipodi:role="line"
         x="905"
         y="261.5">object?</tspan></text>
<text
       xml:space="preserve"
       x="1054"
       y="149"
       id="text8685"><tspan
         sodipodi:role="line"
         id="tspan8687"
         x="1054"
         y="149">Print stack trace</tspan><tspan
         id="tspan8691"
         sodipodi:role="line"
         x="1054"
         y="160.25">(before it’s discarded);</tspan><tspan
         id="tspan8689"
         sodipodi:role="line"
         x="1054"
         y="171.5">main() will return error</tspan></text>
<text
       id="text8693"
       y="160"
       x="1194"
       xml:space="preserve"><tspan
         y="160"
         x="1194"
         sodipodi:role="line"
         id="tspan8699">Exception blocked</tspan></text>
</g><g
     id="gArrows"
     style="fill:none;stroke:#000000;stroke-width:1px"><path
       inkscape:connector-curvature="0"
       id="path531"
       d="m 108.5,156.5 31,0"
       style="marker-end:url(#Arrow2Lend)" /><path
       inkscape:connector-curvature="0"
       id="path524"
       d="m 196.5,124.5 0,-31"
       style="marker-end:url(#Arrow2Lend)" /><path
       inkscape:connector-curvature="0"
       id="path184"
       d="m 251.5,74.5 65,0 c 10,0 15,5 15,15 l 0,48"
       style="marker-end:url(#Arrow2Lend)"
       sodipodi:nodetypes="cssc" /><path
       inkscape:connector-curvature="0"
       id="path563"
       d="m 251.5,156.5 32,0"
       style="marker-end:url(#Arrow2Lend)" /><path
       inkscape:connector-curvature="0"
       id="path730"
       d="m 331.5,263.5 0,46"
       style="marker-end:url(#Arrow2Lend)" /><path
       inkscape:connector-curvature="0"
       id="path229"
       d="m 331.5,174.5 0,22"
       style="marker-end:url(#Arrow2Lend)" /><path
       inkscape:connector-curvature="0"
       id="path254"
       d="m 394.5,332.5 56,0 c 10,0 15,-5 15,-15 l 0,-127"
       style="marker-end:url(#Arrow2Lend)" /><path
       inkscape:connector-curvature="0"
       id="path222"
       d="m 410.5,156.5 -32,0"
       style="marker-end:url(#Arrow2Lend)" /><path
       inkscape:connector-curvature="0"
       id="path759"
       d="m 387.5,230.5 63,0 c 10,0 15,-5 15,-15" /><path
       inkscape:connector-curvature="0"
       id="path247"
       d="m 520.5,156.5 39,0"
       style="marker-end:url(#Arrow2Lend)" /><path
       inkscape:connector-curvature="0"
       id="path396"
       d="m 616.5,124.5 0,-35 c 0,-10 -5,-15 -15,-15 l -255,0 c -10,0 -15,5 -15,15" /><path
       inkscape:connector-curvature="0"
       id="path456"
       d="m 672.5,156.5 32,0"
       style="marker-end:url(#Arrow2Lend)" /><path
       inkscape:connector-curvature="0"
       id="path655"
       d="m 760.5,124.5 0,-31"
       style="marker-end:url(#Arrow2Lend)" /><path
       inkscape:connector-curvature="0"
       id="path623"
       d="m 904.5,278.5 0,85 c 0,10 -5,15 -15,15 l -678,0 c -10,0 -15,-5 -15,-15 l 0,-173"
       style="marker-end:url(#Arrow2Lend)" /><path
       inkscape:connector-curvature="0"
       id="path481"
       d="m 816.5,156.5 32,0"
       style="marker-end:url(#Arrow2Lend)" /><path
       inkscape:connector-curvature="0"
       id="path314"
       d="m 904.5,189.5 0,22"
       style="marker-end:url(#Arrow2Lend)" /><path
       style="marker-end:url(#Arrow2Lend)"
       d="m 827.5,73.5 62,0 c 10,0 15,5 15,15 l 0,34"
       id="path881"
       inkscape:connector-curvature="0" /><path
       inkscape:connector-curvature="0"
       id="path382"
       d="m 960.5,156.5 32,0"
       style="marker-end:url(#Arrow2Lend)" /><path
       inkscape:connector-curvature="0"
       id="path389"
       d="m 1115.5,156.5 27,0"
       style="marker-end:url(#Arrow2Lend)" /><path
       inkscape:connector-curvature="0"
       id="path463"
       d="m 960.5,245.5 218,0 c 10,0 15,-5 15,-15 l 0,-50"
       style="marker-end:url(#Arrow2Lend)" /></g><g
     style="text-align:center;text-anchor:middle"
     id="gArrowsText"><text
       id="text8538"
       y="121"
       x="208"
       xml:space="preserve">Yes</text>
<text
       xml:space="preserve"
       x="528"
       y="152"
       id="text8544">Yes</text>
<text
       id="text8546"
       y="121"
       x="629"
       xml:space="preserve">Yes</text>
<text
       xml:space="preserve"
       x="259"
       y="152"
       id="text8548">No</text>
<text
       id="text8550"
       y="152"
       x="401"
       xml:space="preserve">No</text>
<text
       xml:space="preserve"
       x="398"
       y="227"
       id="text8552">No</text>
<text
       xml:space="preserve"
       x="345"
       y="274"
       id="text8554">Yes</text>
<text
       xml:space="preserve"
       x="683"
       y="152"
       id="text8556">No</text>
<text
       id="text8558"
       y="152"
       x="827"
       xml:space="preserve">No</text>
<text
       xml:space="preserve"
       x="970"
       y="152"
       id="text8560">Yes</text>
<text
       id="text8562"
       y="241"
       x="970"
       xml:space="preserve">No</text>
<text
       xml:space="preserve"
       x="773"
       y="121"
       id="text8564">Yes</text>
<text
       id="text8566"
       y="198"
       x="917"
       xml:space="preserve">No</text>
<text
       xml:space="preserve"
       x="916"
       y="289"
       id="text8568">Yes</text>
</g></svg>
